HIERARCHY
ROOT Hips
{
    OFFSET 0 0 0
    CHANNELS 6 Xposition Yposition Zposition Zrotation Xrotation Yrotation 
    JOINT LeftHip
    {
        OFFSET 3.5 0 0
        CHANNELS 3 Zrotation Xrotation Yrotation 
        JOINT LeftKnee
        {
            OFFSET 0 -19.0555 0
            CHANNELS 3 Zrotation Xrotation Yrotation 
            JOINT LeftHeel
            {
                OFFSET 0 -21.1464 0
                CHANNELS 3 Zrotation Xrotation Yrotation 
                End Site
                {
                    OFFSET 0 0 9.64661
                }
            }
        }
    }
}
MOTION
Frames:  16
Frame Time: 0.033333
-1.86557	39.6738	-1.29219	-0.889161	1.23831	82.7157	4.53061	-18.7968	13.9869	0	21.3651	-11.5955	0	-10.1941	-2.09131e-06
-1.87761	39.6752	-1.29582	-0.97028	1.25051	82.6282	4.08799	-18.7077	11.85	0	20.85	-9.04349	0	-10.3329	-2.09E-06	
-1.88964	39.6753	-1.29943	-1.08453	1.28153	82.5419	3.89355	-18.8047	10.8725	0	20.7299	-7.6808	0	-10.4234	-1.21E-06	
-1.89381	39.6723	-1.30452	-1.1292	1.3172	82.5089	3.83243	-18.9579	10.6108	0	20.9093	-7.17589	0	-10.5255	-1.21E-06	
-1.88948	39.6727	-1.30384	-1.15276	1.31964	82.5408	3.85019	-19.1776	10.5576	0	21.2945	-7.00583	0	-10.5851	0	
-1.87311	39.6696	-1.29953	-1.08872	1.32283	82.6604	3.83616	-19.4549	10.3368	0	21.9516	-6.85163	0	-10.6966	-1.21E-06	
-1.84732	39.6653	-1.2911	-0.95845	1.31625	82.8493	3.81086	-19.9145	9.895	0	23.0734	-6.56637	0	-10.8244	-1.21E-06	
-1.81128	39.6558	-1.27573	-0.75994	1.32872	83.1159	3.77098	-20.7141	9.35331	0	24.9604	-6.18055	0	-10.981	-2.96E-06	
-1.76774	39.6435	-1.24852	-0.50444	1.34823	83.4438	3.74571	-21.9849	8.74504	0	27.8002	-5.69009	0	-11.0339	-1.71E-06	
-1.72046	39.6318	-1.19843	-0.29174	1.37119	83.8147	3.76462	-23.8592	8.29153	0	31.5599	-5.03929	0	-10.7893	0	
-1.66509	39.6256	-1.12486	-0.16894	1.37356	84.2572	3.8782	-26.3665	8.29199	0	36.1351	-4.27581	0	-10.0106	0	
-1.59856	39.6276	-1.04163	-0.19028	1.34775	84.7799	4.01514	-29.3543	8.65863	0	41.0005	-3.19543	0	-8.60265	0	
-1.31808	39.5706	-0.87933	0.35463	0.999796	84.0788	5.37174	-31.176	11.124	0	45.4725	-2.53714	0	-8.05947	0	
-0.98649	39.5161	-0.80347	0.645003	0.733766	83.3832	6.37913	-32.9482	13.2392	0	48.8308	-1.86517	0	-7.73284	0	
-0.59811	39.4714	-0.79295	0.725264	0.666026	82.5805	6.86431	-34.4098	14.8424	0	50.4169	-1.4818	0	-7.79893	0	
-0.15135	39.431	-0.80546	0.684607	0.650679	81.6202	7.01453	-35.3782	15.9205	0	50.0306	-1.4152	0	-8.34141	-1.21E-06	
